<svg width="154" height="57" viewBox="0 0 154 57" fill="none" xmlns="http://www.w3.org/2000/svg">
<path fill-rule="evenodd" clip-rule="evenodd" d="M152.862 48.0869L151.725 49.1783C149.077 51.7206 146.922 52.8074 143.528 54.1739C140.113 55.5704 136.981 56.2816 133.032 56.2816C129.114 56.2816 125.4 55.5823 121.905 54.1753L121.891 54.1699L121.878 54.1643C118.468 52.7157 115.462 50.777 112.872 48.3449L112.86 48.3335L112.848 48.3219C110.313 45.8351 108.288 42.9437 106.772 39.6575L106.766 39.6437L106.76 39.6297C105.265 36.209 104.553 31.4936 104.553 27.771C104.553 23.9858 105.286 20.4218 106.763 17.0957L106.766 17.0902L106.768 17.0846C108.283 13.7465 110.309 10.8258 112.848 8.33501L112.854 8.32919L112.86 8.32343C115.455 5.83307 118.469 3.88773 121.892 2.48698C125.356 1.03931 128.49 0.298462 132.449 0.298462C136.391 0.298462 140.052 1.08387 143.524 2.48158C147.002 3.88151 150.049 5.82783 152.649 8.32343L153.798 9.42635L147.764 15.0974L146.728 14.1302C144.899 12.422 142.739 11.06 140.233 10.0498L140.217 10.0431L140.2 10.036C137.739 8.97527 135.724 8.46979 133.032 8.46979C130.355 8.46979 127.812 8.992 125.389 10.036L125.382 10.0388L125.376 10.0415C122.98 11.0475 120.838 12.4344 118.941 14.2066L118.941 14.207C117.117 15.91 115.657 17.9482 114.562 20.337L114.56 20.3422L114.557 20.3475C113.481 22.6487 112.94 25.1171 112.94 27.771C112.94 30.4028 113.482 33.9222 114.486 36.1747C115.529 38.4606 116.942 40.5088 118.731 42.3247C120.565 44.0822 122.701 45.4892 125.149 46.5441C127.561 47.5836 130.183 48.1103 133.032 48.1103C135.687 48.1103 137.718 47.6485 140.245 46.6792C142.829 45.6373 144.011 45.0614 145.775 43.323L146.823 42.2901L152.862 48.0869Z" fill="white"/>
<path fill-rule="evenodd" clip-rule="evenodd" d="M44.7161 55.9334L40.8343 46.3828C32.4693 50.7504 22.1216 50.8036 13.7164 46.5828L9.60579 55.9334H0.298828L22.146 0.319153H32.2954L54.0502 55.9334H44.7161ZM16.4329 38.6179C22.0356 42.7847 30.7214 43.0118 36.5577 39.0086L36.5809 38.9928L37.9536 38.1243L27.2247 10.546L16.4329 38.6179Z" fill="white"/>
<path fill-rule="evenodd" clip-rule="evenodd" d="M72.8428 0L72.8532 0.000146791C76.7381 0.0549477 80.4367 0.795548 83.938 2.22647C87.4783 3.6511 90.5795 5.63029 93.2269 8.16686C95.9325 10.6546 98.0614 13.6112 99.6112 17.0236C101.177 20.4177 101.953 24.0808 101.953 27.9939C101.953 31.8576 101.176 35.5165 99.6155 38.9549C98.1206 42.3173 96.0476 45.2721 93.402 47.8099L93.3961 47.8155L93.3902 47.8211C90.745 50.3032 87.6487 52.2797 84.1158 53.7555L84.1107 53.7576L84.1055 53.7598C80.5912 55.1966 76.8287 55.9094 72.8324 55.9094H56.5254V0H72.8428ZM91.8538 20.3649L91.8463 20.348C90.779 17.9104 89.3129 15.8288 87.4474 14.0878L87.4327 14.074L87.4183 14.0598C85.6033 12.2704 83.4264 10.8577 80.8689 9.82731L80.8527 9.82078L80.8366 9.81387C78.3583 8.74651 75.6953 8.2082 72.8324 8.2082H64.957V47.7012H72.8193C75.6369 47.6506 78.2859 47.1103 80.7775 46.086C83.2892 45.0534 85.4786 43.6596 87.3583 41.9069C89.2395 40.1007 90.7395 38.0034 91.8616 35.6061C92.9663 33.246 93.5218 30.7145 93.5218 27.9939C93.5218 25.2733 92.9663 22.7418 91.8616 20.3817L91.8538 20.3649Z" fill="white"/>
</svg>
