<svg width="28" height="28" viewBox="0 0 28 28" fill="none" xmlns="http://www.w3.org/2000/svg">
<g clip-path="url(#clip0_2959_80466)">
<path fill-rule="evenodd" clip-rule="evenodd" d="M14 28C21.732 28 28 21.732 28 14C28 6.26801 21.732 0 14 0C6.26801 0 0 6.26801 0 14C0 21.732 6.26801 28 14 28Z" fill="#79FF39"/>
<path fill-rule="evenodd" clip-rule="evenodd" d="M14 5.08594L17.556 10.6313L14 16.1926L10.444 10.6313L14 5.08594Z" fill="black"/>
<path d="M25.2466 14.0045C25.2466 14.0033 25.2466 14.002 25.2466 14.0007H25.2465C25.244 13.7066 25.0048 13.4688 24.71 13.4688C24.4151 13.4688 24.1759 13.7066 24.1734 14.0007H24.1733C24.1733 19.6193 19.6185 24.1741 14 24.1741C8.38139 24.1741 3.82663 19.6193 3.82663 14.0007H3.82654C3.82402 13.7066 3.5848 13.4688 3.28996 13.4688C2.99512 13.4688 2.75591 13.7066 2.75339 14.0007H2.7533C2.7533 14.002 2.7533 14.0033 2.7533 14.0045C2.7533 14.0048 2.7533 14.0051 2.7533 14.0054C2.7533 14.006 2.7533 14.0064 2.7533 14.007C2.75666 20.2154 7.79068 25.2474 14 25.2474C20.2092 25.2474 25.2433 20.2154 25.2466 14.007C25.2466 14.0064 25.2466 14.006 25.2466 14.0054C25.2466 14.0051 25.2466 14.0048 25.2466 14.0045Z" fill="black"/>
</g>
<defs>
<clipPath id="clip0_2959_80466">
<rect width="28" height="28" fill="white"/>
</clipPath>
</defs>
</svg>
